<svg xmlns="http://www.w3.org/2000/svg" viewBox="0 0 56 56"><defs><style>.cls-1{fill:#ffbe50;}.cls-2{fill:#ff7800;}.cls-3{fill:#65bef0;}.cls-4{fill:#008cc8;}.cls-5{fill:#fff;}.cls-6{fill:#c8c8c8;}.cls-7{fill:#a0a0a0;}.cls-8{fill:#e6e6e6;}.cls-10,.cls-9{fill:none;stroke-linecap:round;stroke-linejoin:round;}.cls-9{stroke:#5a5a5a;}.cls-10{stroke:#787878;}.cls-11{fill:#3c7d3c;}.cls-12{fill:#5a965a;}.cls-13{fill:#1e641e;}.cls-14{fill:#ffd7b4;}.cls-15{fill:#ffb48c;}.cls-16{fill:#646464;}</style></defs><title>国語</title><g id="背景"><rect class="cls-1" width="56" height="56" rx="12" ry="12"/></g><g id="アイコン"><path class="cls-2" d="M38.52,12,26,18.48,7.67,44.29,19.38,56H44A12,12,0,0,0,56,44V24.64L47.55,16.2,41.49,15Z"/></g><g id="レイヤー_63" data-name="レイヤー 63"><path class="cls-3" d="M7.46,21.85A24.75,24.75,0,0,1,7.59,19c.07-.45.92-1.26,1.88-1.8a20.35,20.35,0,0,1,8.76-2.35,21.64,21.64,0,0,1,8,1.81,4.91,4.91,0,0,0,3.63,0,21.63,21.63,0,0,1,8-1.81,20.36,20.36,0,0,1,8.76,2.35c1,.54,1.8,1.35,1.88,1.8a24.75,24.75,0,0,1,.13,2.82V43.5c0,1.1-.39,1.58-.87,1.07A12,12,0,0,0,45,42.71,17.54,17.54,0,0,0,37.77,41a17.54,17.54,0,0,0-7.27,1.76A12.68,12.68,0,0,0,28.37,44a.49.49,0,0,1-.73,0,12.68,12.68,0,0,0-2.14-1.32A17.54,17.54,0,0,0,18.23,41,17.54,17.54,0,0,0,11,42.71a12,12,0,0,0-2.64,1.86c-.48.51-.87,0-.87-1.07Z"/><path class="cls-4" d="M28.37,44a12.68,12.68,0,0,1,2.14-1.32A17.53,17.53,0,0,1,37.77,41,17.54,17.54,0,0,1,45,42.71a12,12,0,0,1,2.64,1.86c.48.51.87,0,.87-1.07V21.85A24.74,24.74,0,0,0,48.41,19c-.07-.45-.92-1.26-1.88-1.8a20.36,20.36,0,0,0-8.76-2.35,21.63,21.63,0,0,0-8,1.81A4.46,4.46,0,0,1,28,17V44.2A.5.5,0,0,0,28.37,44Z"/><path class="cls-5" d="M47.54,39c-1.64-1.77-5.4-3-9.77-3S29.64,37.2,28,39c-1.64-1.77-5.4-3-9.77-3S10.1,37.2,8.46,39V16.21c1.64-1.77,5.4-3,9.77-3s8.13,1.24,9.77,3c1.64-1.77,5.4-3,9.77-3s8.13,1.24,9.77,3Z"/><path class="cls-6" d="M47.54,39c-1.64-1.77-5.4-3-9.77-3S29.64,37.2,28,39c-1.64-1.77-5.4-3-9.77-3S10.1,37.2,8.46,39v4c1.64-1.77,5.4-3,9.77-3s8.13,1.24,9.77,3c1.64-1.77,5.4-3,9.77-3s8.13,1.24,9.77,3Z"/><path class="cls-7" d="M37.77,40c4.37,0,8.13,1.24,9.77,3V39c-1.64-1.77-5.4-3-9.77-3S29.64,37.2,28,39v4C29.64,41.19,33.4,40,37.77,40Z"/><path class="cls-8" d="M37.77,36c4.37,0,8.13,1.24,9.77,3V16.21c-1.64-1.77-5.4-3-9.77-3s-8.13,1.24-9.77,3V39C29.64,37.2,33.4,36,37.77,36Z"/><line class="cls-9" x1="43.94" y1="17.49" x2="43.94" y2="30.54"/><line class="cls-9" x1="40.85" y1="15.5" x2="40.85" y2="31.81"/><line class="cls-9" x1="37.77" y1="15.5" x2="37.77" y2="25.29"/><line class="cls-9" x1="34.69" y1="15.5" x2="34.69" y2="34.37"/><line class="cls-9" x1="31.6" y1="17.49" x2="31.6" y2="30.68"/><path class="cls-5" d="M18.23,36c4.37,0,8.13,1.24,9.77,3V16.21c-1.64-1.77-5.4-3-9.77-3s-8.13,1.24-9.77,3V39C10.1,37.2,13.86,36,18.23,36Z"/><line class="cls-10" x1="24.4" y1="17.49" x2="24.4" y2="30.54"/><line class="cls-10" x1="21.31" y1="15.5" x2="21.31" y2="24.15"/><line class="cls-10" x1="18.23" y1="15.5" x2="18.23" y2="30.82"/><line class="cls-10" x1="15.15" y1="15.5" x2="15.15" y2="28.69"/><rect class="cls-11" x="23.77" y="5.93" width="9" height="20" transform="translate(19.55 -15.32) rotate(45)"/><rect class="cls-12" x="24.65" y="3.81" width="3" height="20" transform="translate(17.42 -14.44) rotate(45)"/><rect class="cls-13" x="28.89" y="8.05" width="3" height="20" transform="translate(21.67 -16.2) rotate(45)"/><polygon class="cls-14" points="14.83 29.37 18.01 19.82 24.38 26.19 14.83 29.37"/><polygon class="cls-15" points="14.83 29.37 24.38 26.19 21.2 23 14.83 29.37"/><polygon class="cls-16" points="17.32 28.54 15.66 26.88 14.83 29.37 17.32 28.54"/><polygon points="14.83 29.37 17.32 28.54 16.49 27.71 14.83 29.37"/></g></svg>